<?xml version="1.0" encoding="utf-8"?>
<!-- Generator: Adobe Illustrator 19.0.0, SVG Export Plug-In . SVG Version: 6.00 Build 0)  -->
<svg version="1.1" id="Layer_1" xmlns="http://www.w3.org/2000/svg" xmlns:xlink="http://www.w3.org/1999/xlink" x="0px" y="0px"
	 viewBox="0 0 792 792" style="enable-background:new 0 0 792 792;" xml:space="preserve">
<style type="text/css">
	.st0{fill:none;}
	.st1{fill:#FFFFFF;}
</style>
<g id="XMLID_1_">
	<path id="XMLID_68_" class="st0" d="M-14.7,810.8c0-270.5,0-540.5,0-810.8c278.3,0,556.7,0,835.3,0c0,270,0,540.3,0,810.8
		C542.5,810.8,264.2,810.8-14.7,810.8z M89.9,479.9c-28.3,21.6-46.2,47.2-54.7,78.7c-9,32.9-3.9,64.1,18.1,90.6
		c34.6,41.7,101.5,53.7,145.8,18.6c7.4,49.8,25.6,94.6,76.7,111.7c49.1,16.5,89.2-6.3,122.4-42.7c28.3,38.1,75.8,58.2,121.4,43.7
		c52.7-16.7,71.2-62.2,79-113.4c34.7,27.2,71.5,26.9,109,8.3c35.1-17.5,54.9-46.8,56.2-85.8c0.9-25.7-7.5-50-22.5-71.7
		c-9.7-14-22.2-25.4-35.2-38.2c24.2-7.4,45-16.8,60.2-34.9c15.3-18.3,24.8-38.1,20.1-63.8c-3.4-18.6-12-33.9-22.4-48.3
		c-31-42.7-82.4-53.4-126.1-25.6c-3.7,2.3-6.7,7.1-12,6.6c-3.5-4.8,0.2-8.2,1.7-11.5c11.5-26.5,17.2-54.6,18.1-83.1
		c1.3-39.5-8.8-76.8-30-110.2C602.3,87.4,587.1,67,564.5,53c-42.1-26.1-88.6-38.4-136.9-41.9c-49-3.5-97.3,1.7-145,17.5
		C218,50.1,180.7,96.7,158,156.4c-14.2,37.3-11.3,77-1,115.8c3.8,14.3,15.3,25.6,15.6,45.3c-7-9.8-15.7-10.3-22.9-14.4
		c-22.9-13.1-48.3-15.7-72.7-6.3c-32.1,12.5-52.5,37.7-64.8,69.5c-12,31.1-3.1,57.3,18.7,80.9C46.4,464.1,65.8,473.2,89.9,479.9z"/>
	<path id="XMLID_65_" class="st1" d="M82.2,486.1c3.1-2.7,2.2-7.7-1.7-9c-19.8-6.4-36.2-15.2-49.5-29.8
		c-21.8-23.7-30.7-49.9-18.7-80.9c12.3-31.8,32.7-57,64.8-69.5c24.4-9.5,49.7-6.9,72.7,6.3c3.9,2.2,6.7,3.7,10.4,6
		c4.2,2.6,9.3-1.6,7.7-6.3c-4.2-11.7-7.9-20.2-10.7-30.6c-10.3-38.8-13.2-78.5,1-115.8c22.7-59.7,60-106.3,124.5-127.8
		c47.7-15.8,96-21,145-17.5c48.3,3.4,94.7,15.7,136.7,41.7c0.1,0.1,0.3,0.2,0.4,0.3c32.3,23.8,37.7,34.3,51.2,55.7
		c21.1,33.4,31.2,70.7,30,110.2c-0.9,28.5-10,55.3-18.1,83.1l-0.1,0.3c-1.3,4.4,3.3,8.2,7.4,6.1l2.8-1.4c0.1-0.1,0.3-0.1,0.4-0.2
		c43.7-27.7,95-17,125.9,25.7c10.5,14.4,19,29.7,22.4,48.3c4.7,25.7-4.8,45.5-20.1,63.8c-13.4,16.1-31.3,25.3-52,32.3
		c-3.7,1.3-4.8,6-2,8.7c10.7,10.5,20.9,20.4,29,32.2c15,21.7,23.3,46,22.5,71.7c-1.3,39-21.1,68.3-56.2,85.8
		c-35.1,17.5-69.6,18.8-102.3-3.4c-3.1-2.1-7.4-0.3-8.1,3.4c-8.6,47.7-27.8,89.3-77.6,105.1c-43.7,13.9-89.1-4-117.8-39
		c-2-2.4-5.6-2.5-7.8-0.2c-32.3,33.8-71.1,54-118.2,38.2c-48.3-16.2-67.2-57-75.4-103.4c-0.6-3.7-4.9-5.5-8-3.5
		c-44.1,29-106.3,16.2-139.2-23.4c-22-26.5-27.1-57.7-18.1-90.6C43,530.1,58.3,506.3,82.2,486.1z M108.4,405c-4,2.1-7.5-4.5-4.9-8.2
		c5.9-8.6,13.7-14.3,23.1-18.2c19.3-8,38.8,0.1,44.5,21c2.6,9.4,2.9,18.6,2,27.6c-2.8,27.5-17.6,55.3-50.7,55.9
		c-3.5,0.1-5.7,1.8-8.1,3.9c-15.8,14-28.4,30.6-36.2,50c-13.1,32.4-7.1,84.8,35,99.8c2.8,1-8.6-4,0,0c13.2,6.3,28.9,7.8,45.4,3
		c22.5-6.6,40.7-34.2,36.4-56.8c-3.5-18.4-16.7-26.4-34.9-20.5c-7.4,2.4-14.5,6.1-21.7,9.3c-3.2,1.4-6.3,4.2-9.2-0.2
		c-2.4-3.6-1.2-6.5,1.6-9.5c10.8-11.6,42.1-22.7,59.3-18.7c27.1,6.4,38.3,44.7,33.4,70c-2.2,11.2-4.4,21.8-1.8,33.4
		c7.4,33.3,21.1,62.6,50.9,81.6c9.7,6.2,19.8,6.6,32.3,4.6c11.9-1.9,22-4.7,33.6-10.2c38.6-15.9,43.4-46.6,18.8-77.8
		c-14.3-18.1-34.2-23.2-49.9,3.7c-4.2,7.1-7.5,14.9-10,22.8c-0.2,0.8-0.5,1.5-0.7,2.1c-2,5.2-9.7,4.1-10.1-1.4
		c-1.9-24.7,13.4-55.9,33.3-63c24.3-8.6,51,1.6,73.7,29.1c2.1,2.5,6,2.5,8.1,0c24.6-29.7,51.5-37.8,76.1-28.3
		c18.7,7.2,32.3,36.2,31,60.7c-0.3,5.7-8.4,6.8-10.2,1.4c0-0.1,0-0.1-0.1-0.2c-2.7-8.3-6.3-16.4-10.4-24c-6-11.3-15.2-20-28.7-16.7
		c-19.6,4.8-27.9,20.8-33.9,38.7c-4.9,14.6,0.2,26,9.9,35.8c17.7,17.9,20.9,22,43.6,29.3c0.3,0.1,0.6,0.2,0.9,0.2
		c16.9,2.4,24.8-0.6,26.9-1c21.8-3.3,37-16.4,47.5-34.5c15.4-26.4,28.4-53.2,20.4-86.3c-4.4-18.3-1.7-38.6,10.8-54.3
		c19.5-24.5,60.1-22.2,80.1,3.4c2.2,2.8,3.2,5.4,1.3,8.5c-2.5,4.2-5.4,2.7-9,0.8c-7.4-3.7-14.9-7.5-22.8-10
		c-15.3-4.9-27.6,2.4-31.4,17.5c-3.6,14.5,6.7,44.4,18.9,52.8c10.3,7.1,38.6,17.9,52.3,13.3c13.6-4.6-0.2,0.9,12.6-4.8
		c20.4-9.2,36.2-46.8,36.7-68.1c0.7-29.9-13.4-54-32.7-75.4c-7.3-8.1-14.4-15.5-27.8-15.1c-10,0.3-19.1-6-25.8-15.8
		c-12.9-18.9-15-39.7-12.4-60.9c2.9-24.2,18.1-35.6,37.5-29.3c11.6,3.7,22.3,9.8,29.4,20.1c2.6,3.7-0.5,8.9-5,8.2
		c-1.6-0.2-3.3-0.9-5.2-1.7c-6.5-2.7-11.8-7.1-18.6-9.6c-11.1-4.1-13.7,1.3-14.4,10c-1.2,14,2.8,26.7,10.1,38.8
		c3.2,5.3,6.6,6.3,11.8,6.2c33.7-0.4,64.6-32.1,61-65.2c-2.9-26.6-24.5-61.4-60.9-55.8c-16.4,2.5-30.9,9.9-44.5,18.7
		c-21.6,14.1-40.6,31.6-58.4,49.9c-2.4,2.4-6.4,2.1-8.2-0.8c-3-4.9,2.3-9.7,4.6-13.6c8.1-14,22.2-24.3,27.6-40
		c14.2-41.2,27.1-82.5,19.6-127.4c-6-35.6-21.3-65.2-46.6-90.2c-2.2-2.2-5.8-2-7.7,0.4c-22,26.6-48.3,31.4-74,18.7
		c-35.6-17.6-37.1-48-23.9-80.5c1.1-2.8-0.4-6-3.3-6.9c-20.2-6.3-37.7-9-63.3-9.7c-25.6-0.7-68.2,6.9-91.7,18.2
		c-17.1,8.2-20.4,9.1-47.8,29.3c-17.6,13-28.5,31.4-33.6,44.5c-1.2,3.1,0.8,6.5,4,7c19,3.1,29.5,12.8,35.8,32.1
		c5.8,17.8,0.5,38.5-14.4,50.1c-16.8,13-34.8,15.5-53.2,6c-3.4-1.8-7.5,0.5-7.7,4.3c-1.2,20,2.8,38.9,6.7,57.8
		c6.8,33.3,22.4,62.4,43.4,88.7c3.2,4.1,4.8,7.7,3,11.4c-1.4,3.1-5.4,3.9-8,1.8c-0.2-0.2-0.5-0.4-0.9-0.6c-1.1-0.6-2.1-1.7-2.9-2.7
		c-20.9-25.7-46.5-45.1-76.7-58.6c-33.2-14.9-57.7-10.1-73.4,16.8c-8.6,14.8-17,29.9-12.9,49.2c5.9,27.6,39.5,43.5,61.4,47
		c1.8,0.3,4.5,0.2,6.6-0.6c2.5-0.9,4.2-2.6,4.2-2.6c0,0,0,0,0,0c7.5-13.6,14.6-27.6,11.6-43.8c-1.2-6.4-5.1-11.9-13.3-8.1"/>
	<path id="XMLID_60_" class="st0" d="M434.7,706.4c-9.7-9.8-14.8-21.2-9.9-35.8c6-17.9,14.2-33.9,33.9-38.7
		c13.5-3.3,22.7,5.4,28.7,16.7c4.1,7.7,7.7,15.8,10.4,24c1,3.1,2.2,5.3,4.1,6.4c2.4,1.3,5.4-0.5,5.7-3.2
		c3.3-25.3-10.8-57.5-30.6-65.1c-24.9-9.6-52.1-1.2-77,29.4c-1.6,2-4.7,2-6.3,0c-22.9-28.2-49.9-38.8-74.5-30.1
		c-20.8,7.3-36.6,41.1-32.9,66.2c0.3,2.1,2.1,3.5,4.2,3.4c3.4-0.2,4.9-3,6.3-7.4c2.4-7.9,5.8-15.7,10-22.8
		c15.8-27,35.7-21.8,49.9-3.7c24.6,31.2,25,70.3-13.5,86.2c-9.1,3.8-10.5,4.5-25,6.2c-12.6,1.5-36.5-2.9-46.2-9.1
		c-29.8-19-43.5-48.3-50.9-81.6c-2.6-11.6-0.3-22.2,1.8-33.4c4.9-25.3-6.3-63.6-33.4-70c-17.2-4-48.6,7.1-59.3,18.7
		c-2.8,3-4,5.9-1.6,9.5c2.9,4.4,6,1.7,9.2,0.2c7.2-3.3,14.2-6.9,21.7-9.3c18.2-5.9,31.4,2.1,34.9,20.5c4.3,22.6-13.9,50.2-36.4,56.8
		c-16.4,4.8-32.1-1.3-45.2-7.6c-0.2-0.1-0.4-0.2-0.6-0.3c-42.3-16.6-47.6-62.3-34.4-95c7.8-19.5,20.5-36,36.2-50
		c2.4-2.1,4.5-3.9,8.1-3.9c33.1-0.6,47.9-28.4,50.7-55.9c0.9-9,0.6-18.2-2-27.6c-5.7-20.9-25.2-29-44.5-21
		c-10,4.2-18.3,10.4-24.4,20.2c-1.6,2.5-0.1,5.8,2.9,6.2c5.4,0.7,9.1-1.9,12.5-4.6c4.7-3.8,10.2-5,15.4-7.2
		c8.4-3.5,12.1,1.6,13.3,8.1c3,16.2-4.1,30.2-11.6,43.8c-2.4,4.3-7.1,3.8-10.9,3.2c-21.9-3.4-55.4-19.4-61.4-47
		c-4.1-19.3,4.2-34.4,12.9-49.2c15.7-26.9,40.2-31.7,73.4-16.8c30.2,13.6,55.8,32.9,76.7,58.6c0.8,1,1.8,2.1,2.9,2.7
		c1.1,0.6,2.3,1,3.5,1.4c1.7,0.6,3.7,0,4.7-1.6c2.6-4.2,1.1-8.1-2.4-12.6c-21-26.3-36.6-55.4-43.4-88.7c-4-19.5-8.1-39-6.5-59.7
		c0.2-2.9,3.4-4.7,5.9-3.2c19,10.6,37.5,8.3,54.9-5.1c15-11.6,20.2-32.3,14.4-50.1c-6.4-19.6-17.2-29.4-36.9-32.3
		c-2.7-0.4-4.3-3.2-3.1-5.7c4.7-9.8,13.7-16.2,21.4-22.5c24.8-20.3,49.6-40.7,79.5-53.6c24-10.3,47.1-15.7,72.7-17.4
		c20.9-1.3,42.8,3.6,64.2,10.4c2.3,0.7,3.4,3.2,2.5,5.4c-13.6,32.9-12.5,63.8,23.5,81.6c26.1,12.9,52.6,7.7,74.8-19.7
		c1.5-1.9,4.3-2,6-0.4c25.9,25.1,41.4,55.1,47.5,91.1c7.6,44.9-5.3,86.2-19.6,127.4c-5.4,15.6-19.5,25.9-27.6,40
		c-2.6,4.4-9,9.9-2.9,15.6c1.6,1.5,4.1,1.4,5.6-0.2c18.1-18.7,37.3-36.5,59.3-50.8c13.6-8.8,28.1-16.2,44.5-18.7
		c36.4-5.5,58,29.2,60.9,55.8c3.6,33.2-27.3,64.8-61,65.2c-5.2,0.1-8.6-0.9-11.8-6.2c-7.3-12.2-11.2-24.8-10.1-38.8
		c0.7-8.7,3.3-14.1,14.4-10c6.7,2.5,12.1,6.9,18.6,9.6c4.3,1.8,7.6,2.9,10.6,0c1.4-1.3,1.6-3.5,0.6-5.1
		c-7.1-11.2-18.3-17.6-30.3-21.5c-19.4-6.3-34.6,5.1-37.5,29.3c-2.5,21.1-0.4,41.9,12.4,60.9c6.7,9.8,15.8,16.1,25.8,15.8
		c13.5-0.4,20.5,7,27.8,15.1c19.2,21.5,33.4,45.6,32.7,75.4c-0.5,21.2-9.5,38.3-29.9,47.4c-12.8,5.7-23.8,14.5-37.4,19.1
		c-13.6,4.6-24.1,0.1-34.3-7c-12.2-8.5-22.6-38.3-18.9-52.8c3.8-15.2,16.1-22.4,31.4-17.5c7.9,2.5,15.4,6.2,22.8,10
		c3.6,1.8,6.4,3.3,9-0.8c1.9-3.1,0.9-5.7-1.3-8.5c-20-25.6-60.6-27.9-80.1-3.4c-12.5,15.7-15.2,36-10.8,54.3
		c8,33.1-5.1,59.9-20.4,86.3c-10.5,18-25.7,31.2-47.5,34.5 M480.6,477.5c-2.9,0.8-3.8,4.5-1.7,6.7c2.6,2.8,4.7,4.9,6.8,7.2
		c3.7,4,10.4,7.9,7.8,13.7c-3.1,7-11.4,8.5-18.3,8c-34.8-2.9-67.4-38.3-68.4-73.9c-0.2-6.1,0.1-12.2-8.6-11.8
		c-7.9,0.3-7.3,6.1-7.5,11.6c-1.2,36.9-31.5,70.1-68,74.1c-6.4,0.7-14.1-0.4-17.4-6.9c-3.2-6.3,2.3-10.5,6.3-14.7
		c2.7-2.8,6.3-4.9,8.1-8.7c0.8-1.6,0.4-3.4-0.9-4.6c-1.1-1.1-2.3-2.1-3.2-1.9c-12,2.4-22.9,7.7-29.9,17.7c-6,8.5-7.5,18.4-2.2,28.6
		c7.9,15.4,21,24,37.1,26.6c20.4,3.3,41.3,6.6,58.3-11.6c6.2-6.7,11.3-14.2,17-21.5c1.8-2.3,5.5-1.9,6.8,0.7
		c20.1,39.8,59.4,43.5,91,25.8c25.4-14.3,39.9-36,10.5-56C497.7,482,490.8,474.6,480.6,477.5z M430.4,343.9c2.6,0,4.5,2.4,3.9,4.9
		c-7.1,30.5,1.9,55.4,23.8,66.6c24.7,12.7,58,6.6,74.7-13.6c17.2-20.9,14.4-48.2-7.5-75.4c-1.2-1.5-1.2-3.6,0-5.1
		c5.3-6.3,10.6-12.5,15.6-19c6.1-7.9,9.8-16.8,8.1-27c-1.2-7.2-7.5-10.6-13.2-11.1c-5.4-0.4-3.2,4.6-1.3,9.7c1.6,4.4-5.4,5-8.1,6
		c-5.3,1.8-10.6,4.1-16.1,5c-19.8,3.4-37.2,10.2-52.4,24.6c-8.9,8.4-19.6,16.5-31.7,20.7c-4.5,1.6-9.1,2-8.4,8
		c0.7,6,5.7,5.9,10.2,5.8C428.8,343.9,429.6,343.9,430.4,343.9z M274.9,321.2c1.3,1.6,1.1,3.9-0.3,5.4c-24.7,24.6-21.6,53.2-7,75
		c12.6,18.8,43.6,25.9,66.9,16c11-4.7,19.3-12,25.1-22.4c8.3-14.9,8.6-30.2,4-45.7c-0.7-2.4,1-4.9,3.5-5.1c10.7-1,11.9-2,11.6-9.4
		c-0.1-1.8-1.4-3.4-3.2-3.8c-12.3-2.5-21.4-11-30.9-18.4c-15.6-12.2-30.4-23.9-51.8-26.3c-9.4-1.1-25.4-1.5-24.3-17.3
		c0.2-2.6-2.1-4.8-4.7-4.4c-15.6,2.6-16.1,19-9.5,29.6C260.3,303.6,267.7,312.1,274.9,321.2z"/>
	<path id="XMLID_59_" class="st1" d="M479.4,484.1c-2.2-2.3-1.1-6.2,2-7c10-2.6,16.8,4.7,23.1,9c29.5,20,14.9,41.7-10.5,56
		c-31.5,17.8-70.7,14.1-90.8-25.5c-1.4-2.8-5.2-3.2-7.1-0.7c-5.7,7.2-10.7,14.7-16.9,21.2c-17,18.2-37.9,14.9-58.3,11.6
		c-16.1-2.6-29.2-11.2-37.1-26.6c-5.3-10.2-3.8-20.1,2.2-28.6c7.1-10,18-15.3,29.9-17.7c0.9-0.2,2,0.8,3.1,1.8
		c1.3,1.2,1.7,3.2,0.9,4.8c-1.9,3.7-5.5,5.8-8.1,8.6c-4,4.2-9.6,8.4-6.3,14.7c3.4,6.6,11,7.6,17.4,6.9c36.5-3.9,66.8-37.2,68-74.1
		c0.2-5.5-0.4-11.2,7.5-11.6c8.7-0.4,8.4,5.7,8.6,11.8c1,35.5,33.6,71,68.4,73.9c6.9,0.6,15.2-1,18.3-8c2.6-5.8-4-9.7-7.8-13.7
		C484,488.8,482,486.7,479.4,484.1z"/>
	<path id="XMLID_56_" class="st1" d="M436,343.6c-3.2,0-5.4,0-7.6,0c-4.6,0.1-9.5,0.2-10.2-5.8c-0.7-5.9,3.9-6.4,8.4-8
		c12.2-4.2,22.8-12.3,31.7-20.7c15.2-14.4,32.6-21.2,52.4-24.6c5.5-0.9,10.8-3.2,16.1-5c2.7-0.9,9.3-1.2,7.7-5.6
		c-1.9-5.1-3.7-10.4,1.7-10c5.7,0.4,12,3.9,13.2,11.1c1.8,10.3-2,19.1-8.1,27c-5.7,7.3-11.7,14.3-17.7,21.5
		c23.8,28.1,27.4,56.4,9.6,78c-16.7,20.2-50,26.3-74.7,13.6C435.5,403.3,426.6,376.3,436,343.6z M533.5,364
		c-0.2-8.6-4.4-19.2-13.9-27.7c-3.8-3.4-8.2-5.2-12-2.5c-13.6,9.4-29.3,8.2-44.4,9.5c-13.8,1.2-19.8,5.6-21.2,19.3
		c-2.5,23.3,17.6,47.1,40.3,48.2C511.6,412.3,533,392.4,533.5,364z"/>
	<path id="XMLID_53_" class="st1" d="M277.5,323.8c-7.9-10.3-16.2-19.5-22.8-29.9c-7.4-11.7-6-30.4,14.9-29.9
		c4.6,3.9-5,9.6-0.8,13.6c7,6.7,16.7,7.5,24.4,8.4c21.3,2.4,36.2,14.1,51.8,26.3c10.2,8,20,17.3,33.9,18.9
		c0.7,11.8,0.7,11.8-16.5,13.2c6.2,17.2,6.7,34-2.4,50.4c-5.8,10.4-14.2,17.8-25.1,22.4c-23.3,9.9-54.3,2.8-66.9-16
		C252.9,378.7,250.1,348.9,277.5,323.8z M287.6,330.9c-14.5,12.6-22.8,30.1-20.1,42.4c4.5,21.5,20.8,36.7,40.2,37.5
		c23.7,1,41.2-10.8,47.6-33.6c3-10.5,1.2-21.5-4.9-30.7c-4.4-6.7-4.3-3.4-12.6-5.1C322.8,338.4,299.9,344,287.6,330.9z"/>
	<path id="XMLID_52_" class="st0" d="M533.5,364c-0.5,28.4-21.9,48.3-51.1,46.8c-22.8-1.1-42.8-24.9-40.3-48.2
		c1.5-13.7,7.4-18.1,21.2-19.3c15-1.3,30.8-0.1,44.4-9.5c3.9-2.7,8.2-0.9,12,2.5C529,344.9,533.3,355.4,533.5,364z"/>
	<path id="XMLID_51_" class="st0" d="M287.6,330.9c12.2,13.1,29.3,9.3,44.3,12.7c6.2,1.4,14.1-3.7,18.5,3c6.1,9.2,7.8,20.2,4.9,30.7
		c-6.4,22.7-23.9,34.6-47.6,33.6c-19.4-0.8-35.7-16-40.2-37.5C264.9,361,273.2,343.5,287.6,330.9z"/>
</g>
</svg>
